<svg xmlns="http://www.w3.org/2000/svg" viewBox="0 -5 420 125" fill="none">
  <!-- BEACON Wordmark — Navy + Signal Orange, with crossbar -->

  <g fill="#0f172a">
    <!-- B -->
    <g transform="translate(10.0,110) scale(0.0650,-0.0650)">
      <path d="M161 0V1446H659Q801 1446 902.0 1419.0Q1003 1392 1067.5 1342.0Q1132 1292 1162.0 1221.0Q1192 1150 1192 1061Q1192 1010 1177.0 963.5Q1162 917 1130.5 876.5Q1099 836 1050.5 803.0Q1002 770 935 747Q1233 680 1233 425Q1233 333 1198.0 255.0Q1163 177 1096.0 120.5Q1029 64 931.0 32.0Q833 0 707 0ZM430 634V210H702Q777 210 828.0 228.0Q879 246 909.5 276.0Q940 306 953.5 346.0Q967 386 967 431Q967 478 952.0 515.5Q937 553 905.0 579.5Q873 606 822.5 620.0Q772 634 701 634ZM430 820H644Q782 820 852.5 870.0Q923 920 923 1029Q923 1142 859.0 1190.0Q795 1238 659 1238H430Z"/>
    </g>
    <!-- E -->
    <g transform="translate(95.6,110) scale(0.0440,-0.0440)">
      <path d="M1073 1446V1232H431V831H937V624H431V215H1073V0H161V1446Z"/>
    </g>
    <!-- A -->
    <g transform="translate(146.2,110) scale(0.0440,-0.0440)">
      <path d="M1400 0H1192Q1157 0 1135.0 17.5Q1113 35 1102 61L994 356H395L287 61Q279 38 256.0 19.0Q233 0 199 0H-11L558 1446H832ZM464 546H925L749 1027Q736 1059 722.0 1102.5Q708 1146 694 1197Q680 1146 666.5 1102.0Q653 1058 640 1025Z"/>
    </g>
    <!-- C -->
    <g transform="translate(207.3,110) scale(0.0440,-0.0440)">
      <path d="M1154 341Q1176 341 1193 324L1299 209Q1211 100 1082.5 42.0Q954 -16 774 -16Q613 -16 484.5 39.0Q356 94 265.0 192.0Q174 290 125.5 426.0Q77 562 77 723Q77 886 129.0 1021.5Q181 1157 275.5 1255.0Q370 1353 501.0 1407.5Q632 1462 791 1462Q949 1462 1071.5 1410.0Q1194 1358 1280 1274L1190 1149Q1182 1137 1169.5 1128.0Q1157 1119 1135 1119Q1120 1119 1104.0 1127.5Q1088 1136 1069.0 1148.5Q1050 1161 1025.0 1176.0Q1000 1191 967.0 1203.5Q934 1216 890.5 1224.5Q847 1233 790 1233Q693 1233 612.5 1198.5Q532 1164 474.0 1098.5Q416 1033 384.0 938.5Q352 844 352 723Q352 601 386.5 506.0Q421 411 480.0 346.0Q539 281 619.0 246.5Q699 212 791 212Q846 212 890.5 218.0Q935 224 972.5 237.0Q1010 250 1043.5 270.5Q1077 291 1110 321Q1120 330 1131.0 335.5Q1142 341 1154 341Z"/>
    </g>
    <!-- O -->
    <g transform="translate(265.5,110) scale(0.0440,-0.0440)">
      <path d="M1540 723Q1540 564 1487.5 428.5Q1435 293 1339.0 194.0Q1243 95 1108.0 39.5Q973 -16 808 -16Q644 -16 509.0 39.5Q374 95 277.5 194.0Q181 293 128.0 428.5Q75 564 75 723Q75 882 128.0 1017.5Q181 1153 277.5 1252.0Q374 1351 509.0 1406.5Q644 1462 808 1462Q918 1462 1015.0 1436.5Q1112 1411 1193.0 1364.5Q1274 1318 1338.5 1251.5Q1403 1185 1448.0 1103.0Q1493 1021 1516.5 925.0Q1540 829 1540 723ZM1265 723Q1265 842 1233.0 936.5Q1201 1031 1142.0 1097.0Q1083 1163 998.5 1198.0Q914 1233 808 1233Q702 1233 617.5 1198.0Q533 1163 473.5 1097.0Q414 1031 382.0 936.5Q350 842 350 723Q350 604 382.0 509.5Q414 415 473.5 349.5Q533 284 617.5 249.0Q702 214 808 214Q914 214 998.5 249.0Q1083 284 1142.0 349.5Q1201 415 1233.0 509.5Q1265 604 1265 723Z"/>
    </g>
    <!-- N -->
    <g transform="translate(336.6,110) scale(0.0440,-0.0440)">
      <path d="M302 1446Q319 1446 331.5 1444.5Q344 1443 353.5 1438.5Q363 1434 372.0 1425.5Q381 1417 392 1403L1150 435Q1147 470 1145.0 504.0Q1143 538 1143 567V1446H1380V0H1242Q1210 0 1188.5 10.5Q1167 21 1147 46L392 1009Q395 977 396.5 945.5Q398 914 398 888V0H161V1446H302Z"/>
    </g>
  </g>

  <!-- Antenna tip dot (orange) -->
  <circle cx="176.8" cy="38.4" r="5" fill="#f97316"/>

  <!-- Signal waves (orange) -->
  <g stroke="#f97316" stroke-width="2.5" stroke-linecap="round" fill="none">
    <path d="M 167.6,29.2 A 13,13 0 0,1 186.0,29.2"/>
    <path d="M 161.9,23.5 A 21,21 0 0,1 191.6,23.5"/>
  </g>

</svg>